<svg preserveAspectRatio="none" width="100%" height="100%" overflow="visible" style="display: block;" viewBox="0 0 77 80" fill="none" xmlns="http://www.w3.org/2000/svg">
<g id="Icon" clipPath="url(#clip0_317_618)">
<path id="Vector" d="M17.5386 1.01266V28.7975C7.86213 32.6709 1.02941 42.0253 1.02941 52.9367C1.02941 67.3165 12.8805 78.9873 27.511 78.9873C42.1415 78.9873 53.9926 67.3291 53.9926 52.9367C53.9926 42.0127 47.1599 32.6709 37.4706 28.7975V1.01266" stroke="var(--stroke-0, #274348)" strokeWidth="1.6" strokeLinecap="round" strokeLinejoin="round"/>
<path id="Vector_2" d="M12.829 1.01266H42.1801" stroke="var(--stroke-0, #274348)" strokeWidth="1.6" strokeLinecap="round" strokeLinejoin="round"/>
<path id="Vector_3" d="M52.7702 45.1139H2.23897" stroke="var(--stroke-0, #274348)" strokeWidth="1.6" strokeLinecap="round" strokeLinejoin="round"/>
<path id="Vector_4" d="M48.807 37.481V7.41772" stroke="var(--stroke-0, #274348)" strokeWidth="1.6" strokeLinecap="round" strokeLinejoin="round"/>
<path id="Vector_5" d="M71.1452 7.40506V68C71.1452 74.0633 66.1397 78.9873 59.9761 78.9873C56.8879 78.9873 54.0956 77.7595 52.0754 75.7721C50.1452 73.8734 48.9099 71.2785 48.807 68.3924" stroke="var(--stroke-0, #274348)" strokeWidth="1.6" strokeLinecap="round" strokeLinejoin="round"/>
<path id="Vector_6" d="M61.1599 22.1013H71.1581" stroke="var(--stroke-0, #274348)" strokeWidth="1.6" strokeLinecap="round" strokeLinejoin="round"/>
<path id="Vector_7" d="M61.1599 33.1013H71.1581" stroke="var(--stroke-0, #274348)" strokeWidth="1.6" strokeLinecap="round" strokeLinejoin="round"/>
<path id="Vector_8" d="M43.9945 7.43038H75.9706" stroke="var(--stroke-0, #274348)" strokeWidth="1.6" strokeLinecap="round" strokeLinejoin="round"/>
<path id="Vector_9" d="M53.9798 51.4557L71.1581 40" stroke="var(--stroke-0, #274348)" strokeWidth="1.6" strokeLinecap="round" strokeLinejoin="round"/>
<path id="Vector_10" d="M18.5809 57.8608C19.519 57.8608 20.2794 57.1127 20.2794 56.1899C20.2794 55.2671 19.519 54.519 18.5809 54.519C17.6428 54.519 16.8824 55.2671 16.8824 56.1899C16.8824 57.1127 17.6428 57.8608 18.5809 57.8608Z" stroke="var(--stroke-0, #274348)" strokeWidth="1.6" strokeLinecap="round" strokeLinejoin="round"/>
<path id="Vector_11" d="M37.9596 57.8608C38.8976 57.8608 39.6581 57.1127 39.6581 56.1899C39.6581 55.2671 38.8976 54.519 37.9596 54.519C37.0215 54.519 36.261 55.2671 36.261 56.1899C36.261 57.1127 37.0215 57.8608 37.9596 57.8608Z" stroke="var(--stroke-0, #274348)" strokeWidth="1.6" strokeLinecap="round" strokeLinejoin="round"/>
<path id="Vector_12" d="M27.4982 71.4937C28.4362 71.4937 29.1967 70.7456 29.1967 69.8228C29.1967 68.9 28.4362 68.1519 27.4982 68.1519C26.5601 68.1519 25.7996 68.9 25.7996 69.8228C25.7996 70.7456 26.5601 71.4937 27.4982 71.4937Z" stroke="var(--stroke-0, #274348)" strokeWidth="1.6" strokeLinecap="round" strokeLinejoin="round"/>
<path id="Vector_13" d="M25.8125 34.7722C26.7506 34.7722 27.511 34.0241 27.511 33.1013C27.511 32.1785 26.7506 31.4304 25.8125 31.4304C24.8744 31.4304 24.114 32.1785 24.114 33.1013C24.114 34.0241 24.8744 34.7722 25.8125 34.7722Z" stroke="var(--stroke-0, #274348)" strokeWidth="1.6" strokeLinecap="round" strokeLinejoin="round"/>
<path id="Vector_14" d="M30.8952 19.7342C31.8333 19.7342 32.5937 18.9861 32.5937 18.0633C32.5937 17.1405 31.8333 16.3924 30.8952 16.3924C29.9571 16.3924 29.1967 17.1405 29.1967 18.0633C29.1967 18.9861 29.9571 19.7342 30.8952 19.7342Z" stroke="var(--stroke-0, #274348)" strokeWidth="1.6" strokeLinecap="round" strokeLinejoin="round"/>
</g>
<defs>
<clipPath id="clip0_317_618">
<rect width="77" height="80" fill="white"/>
</clipPath>
</defs>
</svg>
