<svg preserveAspectRatio="none" width="100%" height="100%" overflow="visible" style="display: block;" viewBox="0 0 79 80" fill="none" xmlns="http://www.w3.org/2000/svg">
<g id="Icon">
<path id="Vector" d="M43.0914 10.914C41.7093 12.6242 39.4037 15.019 36.2548 16.7382C36.2398 16.7449 36.2256 16.7523 36.2114 16.7598C33.1569 18.4171 29.8544 19.1486 26.399 18.9356C25.9583 18.9095 25.5783 19.2417 25.5505 19.6797C25.5228 20.1184 25.8586 20.4953 26.2993 20.5229C26.7258 20.549 27.1493 20.5624 27.5706 20.5624C30.8558 20.5624 34.0009 19.7624 36.9362 18.1788C36.9512 18.1713 36.9669 18.1639 36.9811 18.1564C40.3826 16.3099 42.8598 13.7408 44.3387 11.9106C44.6153 11.568 44.5606 11.0674 44.2158 10.7926C43.871 10.5177 43.3673 10.5721 43.0907 10.9147L43.0914 10.914Z" fill="var(--fill-0, #274348)"/>
<path id="Vector_2" d="M15.6978 52.1751C19.1974 53.39 22.7353 54.3471 26.2147 55.0183C26.6486 55.1024 27.0684 54.8201 27.1531 54.3896C27.237 53.9583 26.9537 53.5412 26.5197 53.457C23.2937 52.8343 20.0144 51.9605 16.7621 50.8574V24.187C16.7621 11.7274 26.9612 1.59032 39.5004 1.59032C52.0395 1.59032 62.2386 11.7266 62.2386 24.187V50.8574C58.9893 51.959 55.7078 52.8335 52.478 53.457C52.044 53.5404 51.7607 53.9583 51.8454 54.3896C51.9196 54.7695 52.2547 55.0332 52.6302 55.0332C52.6812 55.0332 52.7321 55.0287 52.7838 55.0183C56.267 54.3456 59.8063 53.3892 63.3037 52.1751C63.6245 52.0633 63.8404 51.7624 63.8404 51.4242V24.187C63.8404 17.7266 61.3084 11.6521 56.7107 7.0838C52.1122 2.51546 46.0004 0 39.4966 0C32.9928 0 26.8855 2.51546 22.2893 7.0838C17.6931 11.6521 15.1618 17.7259 15.1618 24.187V51.4242C15.1618 51.7624 15.377 52.0633 15.6985 52.1751H15.6978Z" fill="var(--fill-0, #274348)"/>
<path id="Vector_3" d="M70.0849 65.4719C67.1991 63.2276 63.9656 62.8082 61.1128 62.438C60.8452 62.403 60.5821 62.3695 60.322 62.3337C60.3205 62.3337 60.3198 62.3337 60.3183 62.3337C60.3153 62.3337 60.3123 62.3337 60.3101 62.333C60.3101 62.333 60.3093 62.333 60.3086 62.333C58.6888 62.1125 57.15 61.8495 56.1066 61.0726C50.383 56.8127 50.9355 52.0581 51.3387 50.4417C51.7045 50.038 52.056 49.6149 52.3941 49.1717C54.567 46.327 56.1673 42.6905 57.15 38.3635C58.8087 31.0607 58.1461 24.3873 58.1169 24.1073C58.0719 23.67 57.6791 23.3527 57.2392 23.3974C56.7992 23.4421 56.4799 23.8331 56.5248 24.2696C56.5316 24.3359 57.1897 30.9616 55.5887 38.0134C54.4981 42.8149 52.6797 46.6183 50.1507 49.4026C50.0607 49.4659 49.9843 49.5479 49.9266 49.6447C47.5895 52.1222 44.6655 53.7572 41.1696 54.5318C40.0768 54.7739 38.9217 54.7739 37.8289 54.5318C34.333 53.7579 31.4098 52.1244 29.0727 49.6484C29.015 49.5531 28.9393 49.4719 28.8508 49.4086C26.3263 46.6309 24.5087 42.8387 23.4166 38.0514C22.1836 32.6488 22.281 27.4764 22.3972 25.3207C25.6278 26.5006 28.7886 26.9959 31.8078 26.7933C34.6073 26.6056 37.3095 25.819 39.8384 24.4536C39.8534 24.4462 39.8692 24.4387 39.8834 24.4305C46.1968 21.0034 49.3374 15.1918 49.4679 14.946C49.674 14.5579 49.5248 14.0767 49.1336 13.8711C48.743 13.6663 48.2588 13.8145 48.052 14.2026C48.022 14.2585 45.0245 19.8086 39.1556 23.0123C39.1406 23.019 39.1264 23.0264 39.1121 23.0339C33.9395 25.8406 28.1755 25.9806 21.9782 23.451C21.7444 23.3557 21.4798 23.375 21.2631 23.5047C21.0465 23.6335 20.9041 23.8562 20.8779 24.1058C20.8487 24.3866 20.1868 31.06 21.8455 38.3635C22.8282 42.6905 24.4285 46.327 26.6022 49.1717C26.941 49.6156 27.2948 50.0402 27.6613 50.4447C28.0623 52.0618 28.6087 56.8156 22.8919 61.0704C21.8485 61.8473 20.3097 62.1102 18.69 62.3307C18.69 62.3307 18.6892 62.3307 18.6885 62.3307C18.6855 62.3307 18.6825 62.3307 18.6795 62.3315C18.678 62.3315 18.6772 62.3315 18.6757 62.3315C18.4164 62.3665 18.1525 62.4007 17.8849 62.4358C15.0322 62.806 11.7986 63.2253 8.91286 65.4696C5.61111 68.0372 3.49963 72.4894 2.45776 79.0793C2.38881 79.5136 2.68788 79.9203 3.12411 79.9888C3.16609 79.9955 3.20806 79.9985 3.24929 79.9985C3.6368 79.9985 3.9771 79.7184 4.03856 79.3266C5.01447 73.1538 6.93106 69.0309 9.89852 66.7225C12.4395 64.7464 15.4422 64.3568 18.0911 64.0134C18.25 63.9926 18.4066 63.9724 18.5633 63.9516C21.4093 66.0961 24.5911 67.7773 28.0278 68.9475C31.6938 70.1959 35.5533 70.8283 39.4966 70.8283C43.44 70.8283 47.2994 70.1952 50.9654 68.9475C54.4021 67.7773 57.5839 66.0961 60.43 63.9516C60.5859 63.9724 60.7433 63.9926 60.9022 64.0134C63.5511 64.3568 66.5538 64.7464 69.0947 66.7225C72.0622 69.0302 73.9788 73.1531 74.9547 79.3266C75.0169 79.7184 75.3572 79.9985 75.744 79.9985C75.7852 79.9985 75.8272 79.9955 75.8691 79.9888C76.3061 79.9203 76.6045 79.5136 76.5355 79.0793C75.4936 72.4894 73.3821 68.038 70.0804 65.4696L70.0849 65.4719ZM39.5004 69.2395C32.7605 69.2395 26.1929 67.2447 20.8007 63.5918C21.9205 63.3512 22.9871 62.9892 23.8536 62.3441C28.6537 58.7717 29.5441 54.803 29.4917 52.2086C31.7553 54.1088 34.4297 55.4071 37.4818 56.0834C38.1422 56.2294 38.8205 56.3024 39.4996 56.3024C40.1787 56.3024 40.8586 56.2294 41.5189 56.0827C44.5703 55.4063 47.2439 54.1073 49.5076 52.2071C49.4536 54.8022 50.3433 58.7695 55.1464 62.3441C56.0129 62.9892 57.0795 63.3512 58.1993 63.5918C52.8071 67.2447 46.2396 69.2395 39.4996 69.2395H39.5004Z" fill="var(--fill-0, #274348)"/>
<path id="Vector_4" d="M5.60209 42.8886C6.04432 42.8886 6.40261 42.5325 6.40261 42.0931V39.6603C6.40261 39.2208 6.04432 38.8647 5.60209 38.8647C5.15986 38.8647 4.80157 39.2208 4.80157 39.6603V42.0931C4.80157 42.5325 5.15986 42.8886 5.60209 42.8886Z" fill="var(--fill-0, #274348)"/>
<path id="Vector_5" d="M5.60209 50C6.04432 50 6.40261 49.644 6.40261 49.2045V46.7717C6.40261 46.3322 6.04432 45.9762 5.60209 45.9762C5.15986 45.9762 4.80157 46.3322 4.80157 46.7717V49.2045C4.80157 49.644 5.15986 50 5.60209 50Z" fill="var(--fill-0, #274348)"/>
<path id="Vector_6" d="M7.95567 43.6372C7.51343 43.6372 7.15515 43.9933 7.15515 44.4327C7.15515 44.8722 7.51343 45.2283 7.95567 45.2283H10.4037C10.8459 45.2283 11.2042 44.8722 11.2042 44.4327C11.2042 43.9933 10.8459 43.6372 10.4037 43.6372H7.95567Z" fill="var(--fill-0, #274348)"/>
<path id="Vector_7" d="M4.0483 44.4327C4.0483 43.9933 3.69002 43.6372 3.24779 43.6372H0.800516C0.358283 43.6372 0 43.9933 0 44.4327C0 44.8722 0.358283 45.2283 0.800516 45.2283H3.24854C3.69077 45.2283 4.04905 44.8722 4.04905 44.4327H4.0483Z" fill="var(--fill-0, #274348)"/>
<path id="Vector_8" d="M72.3609 5.82498C72.8032 5.82498 73.1615 5.46893 73.1615 5.02945V2.59668C73.1615 2.1572 72.8032 1.80115 72.3609 1.80115C71.9187 1.80115 71.5604 2.1572 71.5604 2.59668V5.02945C71.5604 5.46893 71.9187 5.82498 72.3609 5.82498Z" fill="var(--fill-0, #274348)"/>
<path id="Vector_9" d="M72.3609 12.9356C72.8032 12.9356 73.1615 12.5795 73.1615 12.14V9.70727C73.1615 9.2678 72.8032 8.91174 72.3609 8.91174C71.9187 8.91174 71.5604 9.2678 71.5604 9.70727V12.14C71.5604 12.5795 71.9187 12.9356 72.3609 12.9356Z" fill="var(--fill-0, #274348)"/>
<path id="Vector_10" d="M74.7145 8.16382H77.1625C77.6047 8.16382 77.963 7.80776 77.963 7.36828C77.963 6.92881 77.6047 6.57275 77.1625 6.57275H74.7145C74.2722 6.57275 73.9139 6.92881 73.9139 7.36828C73.9139 7.80776 74.2722 8.16382 74.7145 8.16382Z" fill="var(--fill-0, #274348)"/>
<path id="Vector_11" d="M67.5593 8.16382H70.0073C70.4496 8.16382 70.8078 7.80776 70.8078 7.36828C70.8078 6.92881 70.4496 6.57275 70.0073 6.57275H67.5593C67.1171 6.57275 66.7588 6.92881 66.7588 7.36828C66.7588 7.80776 67.1171 8.16382 67.5593 8.16382Z" fill="var(--fill-0, #274348)"/>
</g>
</svg>
