<svg preserveAspectRatio="none" width="100%" height="100%" overflow="visible" style="display: block;" viewBox="0 0 108 20" fill="none" xmlns="http://www.w3.org/2000/svg">
<g id="Stars">
<path id="Star 1" d="M10 0L12.9389 5.95492L19.5106 6.90983L14.7553 11.5451L15.8779 18.0902L10 15L4.12215 18.0902L5.24472 11.5451L0.489435 6.90983L7.06107 5.95492L10 0Z" fill="var(--fill-0, #19BF98)"/>
<path id="Star 2" d="M32 0L34.9389 5.95492L41.5106 6.90983L36.7553 11.5451L37.8779 18.0902L32 15L26.1221 18.0902L27.2447 11.5451L22.4894 6.90983L29.0611 5.95492L32 0Z" fill="var(--fill-0, #19BF98)"/>
<path id="Star 3" d="M54 0L56.9389 5.95492L63.5106 6.90983L58.7553 11.5451L59.8779 18.0902L54 15L48.1221 18.0902L49.2447 11.5451L44.4894 6.90983L51.0611 5.95492L54 0Z" fill="var(--fill-0, #19BF98)"/>
<path id="Star 4" d="M76 0L78.9389 5.95492L85.5106 6.90983L80.7553 11.5451L81.8779 18.0902L76 15L70.1221 18.0902L71.2447 11.5451L66.4894 6.90983L73.0611 5.95492L76 0Z" fill="var(--fill-0, #19BF98)"/>
<path id="Star 5" d="M98 0L100.939 5.95492L107.511 6.90983L102.755 11.5451L103.878 18.0902L98 15L92.1221 18.0902L93.2447 11.5451L88.4894 6.90983L95.0611 5.95492L98 0Z" fill="var(--fill-0, #19BF98)"/>
</g>
</svg>
