<svg preserveAspectRatio="none" width="100%" height="100%" overflow="visible" style="display: block;" viewBox="0 0 42 30" fill="none" xmlns="http://www.w3.org/2000/svg">
<g id="visa">
<path d="M0 4C0 1.79086 1.79086 0 4 0H38C40.2091 0 42 1.79086 42 4V26C42 28.2091 40.2091 30 38 30H4C1.79086 30 0 28.2091 0 26V4Z" fill="var(--fill-0, #122751)"/>
<path id="Vector" d="M17.265 10.2889L13.2011 19.7352H10.5496L8.54959 12.1962C8.42849 11.733 8.32305 11.5625 7.95401 11.3666C7.35089 11.0474 6.35494 10.7489 5.4795 10.5631L5.53857 10.2889H9.80716C10.3504 10.2889 10.8396 10.6413 10.9638 11.2516L12.0206 16.7183L14.6295 10.2889H17.265ZM20.8494 10.2889L18.7754 19.7352H16.267L18.341 10.2889H20.8494ZM27.6535 16.6511C27.664 14.1584 24.1161 14.0202 24.1393 12.9063C24.1478 12.5678 24.4788 12.2073 25.2034 12.1151C25.5623 12.07 26.5539 12.0338 27.6771 12.538L28.1165 10.5338C27.513 10.3212 26.7364 10.1165 25.7704 10.1165C23.2908 10.1165 21.5464 11.3997 21.5326 13.2386C21.5163 14.5989 22.7784 15.3571 23.7276 15.8101C24.7053 16.2728 25.0331 16.5702 25.0286 16.9836C25.0216 17.6174 24.2479 17.898 23.5284 17.9084C22.2669 17.9279 21.5355 17.5763 20.9522 17.3115L20.497 19.3822C21.0838 19.6443 22.1654 19.872 23.2856 19.8835C25.9217 19.8835 27.6458 18.615 27.6535 16.6511ZM34.2014 19.7352H36.5205L34.4943 10.2889H32.3546C31.872 10.2889 31.4664 10.5618 31.2865 10.9814L27.5227 19.7352H30.1568L30.6792 18.3242H33.8973L34.2014 19.7352ZM31.4014 16.3885L32.7222 12.841L33.4809 16.3885H31.4014Z" fill="var(--fill-0, white)"/>
</g>
</svg>
